<svg width="18" height="18" viewBox="0 0 18 18" fill="none" xmlns="http://www.w3.org/2000/svg">
<path fill-rule="evenodd" clip-rule="evenodd" d="M13.7001 4.76357C13.7001 7.39442 10.88 12.8616 9 12.8616C7.11995 12.8616 4.29989 7.39442 4.29989 4.76357C4.29989 2.13272 6.4042 0 9 0C11.5958 0 13.7001 2.13272 13.7001 4.76357ZM10.88 4.76357C10.88 5.81591 10.0383 6.669 9 6.669C7.96168 6.669 7.11995 5.81591 7.11995 4.76357C7.11995 3.71123 7.96168 2.85814 9 2.85814C10.0383 2.85814 10.88 3.71123 10.88 4.76357ZM4.31519 13.363C4.35389 13.2584 4.45253 13.1891 4.56274 13.1891H4.7699C5.20794 13.1891 5.56304 12.8292 5.56304 12.3853C5.56304 11.9413 5.20794 11.5814 4.7699 11.5814H4.56274C3.7913 11.5814 3.10077 12.0664 2.8299 12.7985L2.10585 14.7554C1.704 15.8415 2.49617 17 3.64065 17H14.3594C15.5038 17 16.296 15.8415 15.8942 14.7554L15.1701 12.7985C14.8992 12.0664 14.2087 11.5814 13.4373 11.5814H13.2301C12.7921 11.5814 12.437 11.9413 12.437 12.3853C12.437 12.8292 12.7921 13.1891 13.2301 13.1891H13.4373C13.5475 13.1891 13.6461 13.2584 13.6848 13.363L14.4089 15.3199C14.4135 15.3325 14.4133 15.34 14.4126 15.3451C14.4117 15.3518 14.4088 15.3604 14.4028 15.3692C14.3968 15.378 14.3898 15.3838 14.384 15.387C14.3795 15.3895 14.3727 15.3923 14.3594 15.3923H3.64065C3.62733 15.3923 3.62049 15.3895 3.61605 15.387C3.61019 15.3838 3.6032 15.378 3.59719 15.3692C3.59117 15.3604 3.58829 15.3518 3.58738 15.3451C3.58668 15.34 3.58646 15.3325 3.59114 15.3199L4.31519 13.363Z" fill="#9E9E9E"/>
</svg>
