<svg width="24" height="24" viewBox="0 0 24 24" fill="none" xmlns="http://www.w3.org/2000/svg">
<path fill-rule="evenodd" clip-rule="evenodd" d="M6 2C6 1.44772 6.44772 1 7 1C7.55228 1 8 1.44772 8 2V3H16V2C16 1.44772 16.4477 1 17 1C17.5523 1 18 1.44772 18 2V3H19C20.6569 3 22 4.34315 22 6V20C22 21.6569 20.6569 23 19 23H5C3.34315 23 2 21.6569 2 20V6C2 4.34315 3.34315 3 5 3H6V2ZM4 9H20V21H4V9ZM14 14C13.4477 14 13 14.4477 13 15V17C13 17.5523 13.4477 18 14 18H16C16.5523 18 17 17.5523 17 17V15C17 14.4477 16.5523 14 16 14H14Z" fill="#767676"/>
</svg>
