<svg width="24" height="24" viewBox="0 0 24 24" fill="none" xmlns="http://www.w3.org/2000/svg">
<path fill-rule="evenodd" clip-rule="evenodd" d="M12 24C18.6274 24 24 18.6274 24 12C24 9.87365 23.447 7.87648 22.4769 6.14447L12.0607 16.5607C11.4749 17.1464 10.5251 17.1464 9.93934 16.5607L5.43934 12.0607C4.85355 11.4749 4.85355 10.5251 5.43934 9.93934C6.02513 9.35355 6.97487 9.35355 7.56066 9.93934L11 13.3787L20.6725 3.70616C18.4878 1.42236 15.41 0 12 0C5.37258 0 0 5.37258 0 12C0 18.6274 5.37258 24 12 24Z" fill="#14640C"/>
</svg>
