<svg width="18" height="18" viewBox="0 0 18 18" fill="none" xmlns="http://www.w3.org/2000/svg">
<path fill-rule="evenodd" clip-rule="evenodd" d="M17.25 3.39745C17.25 5.27381 15 9.05986 13.875 9.05986C12.75 9.05986 10.5 5.27381 10.5 3.39745C10.5 1.52109 12.011 0 13.875 0C15.739 0 17.25 1.52109 17.25 3.39745ZM15 3.39745C15 4.0229 14.4963 4.52993 13.875 4.52993C13.2537 4.52993 12.75 4.0229 12.75 3.39745C12.75 2.772 13.2537 2.26497 13.875 2.26497C14.4963 2.26497 15 2.772 15 3.39745ZM13.875 10.5698C14.4146 10.5698 14.8559 10.3527 15.142 10.1715C15.4465 9.97855 15.7198 9.73369 15.9552 9.48864C16.1407 9.29561 16.3232 9.08077 16.5 8.85143V14.5394C16.5 15.3377 16.0253 16.0596 15.2923 16.3758L12.0013 17.7956C11.5198 18.0033 10.976 18.0136 10.4869 17.8243L6.375 16.2322L3.38624 17.2351C2.09045 17.6699 0.75 16.7058 0.75 15.339V5.84526C0.75 5.04696 1.22474 4.32511 1.95774 4.00888L5.25772 2.58519C5.73386 2.37977 6.27117 2.36732 6.75632 2.55046L9 3.39744C9 4.04587 9.1647 4.73705 9.38054 5.36779L7.33832 4.63358C6.68673 4.39932 6 4.88219 6 5.57461V13.6416C6 14.0635 6.26472 14.4399 6.66168 14.5827L9.91168 15.7511C10.5633 15.9854 11.25 15.5025 11.25 14.8101V8.85143C11.4268 9.08077 11.6093 9.29561 11.7948 9.48864C12.0302 9.73369 12.3035 9.97855 12.608 10.1715C12.8941 10.3527 13.3354 10.5698 13.875 10.5698Z" fill="#767676"/>
</svg>
