<svg width="24" height="24" viewBox="0 0 24 24" fill="none" xmlns="http://www.w3.org/2000/svg">
<path fill-rule="evenodd" clip-rule="evenodd" d="M7 1C6.44772 1 6 1.44772 6 2V3H5C3.34315 3 2 4.34315 2 6V20C2 21.6569 3.34315 23 5 23H19C20.6569 23 22 21.6569 22 20V6C22 4.34315 20.6569 3 19 3H18V2C18 1.44772 17.5523 1 17 1C16.4477 1 16 1.44772 16 2V3H8V2C8 1.44772 7.55228 1 7 1ZM20 9H4V21H20V9ZM12.4755 11.4635C12.3259 11.0029 11.6742 11.0029 11.5245 11.4635L10.8774 13.4549H8.78356C8.2992 13.4549 8.09781 14.0747 8.48967 14.3594L10.1836 15.5902L9.5366 17.5816C9.38693 18.0422 9.91417 18.4253 10.306 18.1406L12 16.9098L13.694 18.1406C14.0858 18.4253 14.6131 18.0422 14.4634 17.5816L13.8164 15.5902L15.5103 14.3594C15.9022 14.0747 15.7008 13.4549 15.2164 13.4549H13.1226L12.4755 11.4635Z" fill="#9E9E9E"/>
</svg>
