<svg width="18" height="18" viewBox="0 0 18 18" fill="none" xmlns="http://www.w3.org/2000/svg">
<path fill-rule="evenodd" clip-rule="evenodd" d="M9 18C13.9706 18 18 13.9706 18 9C18 4.02944 13.9706 0 9 0C4.02944 0 0 4.02944 0 9C0 13.9706 4.02944 18 9 18ZM6.4205 4.8295C5.98116 4.39016 5.26884 4.39016 4.8295 4.8295C4.39016 5.26884 4.39016 5.98116 4.8295 6.4205L7.40901 9L4.8295 11.5795C4.39016 12.0188 4.39016 12.7312 4.8295 13.1705C5.26884 13.6098 5.98116 13.6098 6.4205 13.1705L9 10.591L11.5795 13.1705C12.0188 13.6098 12.7312 13.6098 13.1705 13.1705C13.6098 12.7312 13.6098 12.0188 13.1705 11.5795L10.591 9L13.1705 6.4205C13.6098 5.98116 13.6098 5.26884 13.1705 4.8295C12.7312 4.39016 12.0188 4.39016 11.5795 4.8295L9 7.40901L6.4205 4.8295Z" fill="#8A470F"/>
</svg>
