<svg width="18" height="18" viewBox="0 0 18 18" fill="none" xmlns="http://www.w3.org/2000/svg">
<path fill-rule="evenodd" clip-rule="evenodd" d="M9 18C13.9706 18 18 13.9706 18 9C18 4.02944 13.9706 0 9 0C4.02944 0 0 4.02944 0 9C0 13.9706 4.02944 18 9 18ZM9 3.56256C5.99695 3.56256 3.5625 5.99701 3.5625 9.00006C3.5625 12.0031 5.99695 14.4376 9 14.4376H10.125C10.4357 14.4376 10.6875 14.6894 10.6875 15.0001C10.6875 15.3107 10.4357 15.5626 10.125 15.5626H9C5.37563 15.5626 2.4375 12.6244 2.4375 9.00006C2.4375 5.37569 5.37563 2.43756 9 2.43756C12.6244 2.43756 15.5625 5.37569 15.5625 9.00006C15.5625 9.5946 15.4626 10.4164 15.1973 11.1107C14.9492 11.7601 14.4432 12.5626 13.5 12.5626C13.1594 12.5626 12.8236 12.5062 12.5217 12.3415C12.212 12.1727 11.9851 11.9155 11.825 11.5954C11.7813 11.508 11.7422 11.4149 11.7071 11.316C11.0537 12.079 10.0833 12.5626 9 12.5626C7.03249 12.5626 5.4375 10.9676 5.4375 9.00006C5.4375 7.03255 7.03249 5.43756 9 5.43756C10.9675 5.43756 12.5625 7.03255 12.5625 9.00006C12.5625 10.127 12.6623 10.7544 12.8312 11.0923C12.9055 11.2408 12.9833 11.3118 13.0604 11.3539C13.1452 11.4002 13.2781 11.4376 13.5 11.4376C13.6818 11.4376 13.9258 11.2864 14.1464 10.7091C14.3499 10.1765 14.4375 9.49839 14.4375 9.00006C14.4375 5.99701 12.003 3.56256 9 3.56256ZM9 6.56256C7.65381 6.56256 6.5625 7.65387 6.5625 9.00006C6.5625 10.3463 7.65381 11.4376 9 11.4376C10.3462 11.4376 11.4375 10.3463 11.4375 9.00006C11.4375 7.65387 10.3462 6.56256 9 6.56256Z" fill="#9E9E9E"/>
</svg>
