<svg width="25" height="24" viewBox="0 0 25 24" fill="none" xmlns="http://www.w3.org/2000/svg">
<path fill-rule="evenodd" clip-rule="evenodd" d="M12.5 24C19.1274 24 24.5 18.6274 24.5 12C24.5 5.37258 19.1274 0 12.5 0C5.87258 0 0.5 5.37258 0.5 12C0.5 18.6274 5.87258 24 12.5 24ZM8.56066 8.93934C7.97487 8.35355 7.02513 8.35355 6.43934 8.93934C5.85355 9.52513 5.85355 10.4749 6.43934 11.0607L11.4393 16.0607C12.0251 16.6464 12.9749 16.6464 13.5607 16.0607L18.5607 11.0607C19.1464 10.4749 19.1464 9.52513 18.5607 8.93934C17.9749 8.35355 17.0251 8.35355 16.4393 8.93934L12.5 12.8787L8.56066 8.93934Z" fill="#E22831"/>
</svg>
