<svg width="24" height="24" viewBox="0 0 24 24" fill="none" xmlns="http://www.w3.org/2000/svg">
<path fill-rule="evenodd" clip-rule="evenodd" d="M12 24C18.6274 24 24 18.6274 24 12C24 5.37258 18.6274 0 12 0C5.37258 0 0 5.37258 0 12C0 18.6274 5.37258 24 12 24ZM8.06066 8.93934C7.47487 8.35355 6.52513 8.35355 5.93934 8.93934C5.35355 9.52513 5.35355 10.4749 5.93934 11.0607L10.9393 16.0607C11.5251 16.6464 12.4749 16.6464 13.0607 16.0607L18.0607 11.0607C18.6464 10.4749 18.6464 9.52513 18.0607 8.93934C17.4749 8.35355 16.5251 8.35355 15.9393 8.93934L12 12.8787L8.06066 8.93934Z" fill="#767676"/>
</svg>
