<svg width="24" height="24" viewBox="0 0 24 24" fill="none" xmlns="http://www.w3.org/2000/svg">
<path fill-rule="evenodd" clip-rule="evenodd" d="M3 1C1.89543 1 1 1.89543 1 3V21C1 22.1046 1.89543 23 3 23H12.9167V14.75H10.1667V11.0834H12.9167V7.87505C12.9167 4.66672 16.125 4.20838 17.5 4.20838L19.3333 4.20833V7.41672H17.9583C16.4176 7.41672 16.4954 9.03529 16.5595 10.3681C16.5717 10.6212 16.5833 10.8639 16.5833 11.0834H19.7917L18.875 14.75H16.5833V23H21C22.1046 23 23 22.1046 23 21V3C23 1.89543 22.1046 1 21 1H3Z" fill="#E22831"/>
</svg>
