<svg width="24" height="24" viewBox="0 0 24 24" fill="none" xmlns="http://www.w3.org/2000/svg">
<path fill-rule="evenodd" clip-rule="evenodd" d="M12 0C11.4477 0 11 0.468066 11 1.04545V1.51591L3.17927 5.19521C2.46157 5.53285 2 6.27916 2 7.10195V7.31818H9C9 5.58602 10.3431 4.18182 12 4.18182C13.6569 4.18182 15 5.58602 15 7.31818H22V7.10195C22 6.27916 21.5384 5.53285 20.8207 5.19521L13 1.51591V1.04545C13 0.468066 12.5523 0 12 0ZM2 14.6364V9.40909H22V14.6364H20V13.0682C20 12.2021 19.3284 11.5 18.5 11.5C17.6716 11.5 17 12.2021 17 13.0682V14.6364H15.6667V13.0682C15.6667 12.2021 14.9951 11.5 14.1667 11.5C13.3382 11.5 12.6667 12.2021 12.6667 13.0682V14.6364H11.3333V13.0682C11.3333 12.2021 10.6618 11.5 9.83333 11.5C9.00491 11.5 8.33333 12.2021 8.33333 13.0682V14.6364H7V13.0682C7 12.2021 6.32843 11.5 5.5 11.5C4.67157 11.5 4 12.2021 4 13.0682V14.6364H2ZM2 20.9091V16.7273H22V20.9091C22 22.0639 21.1046 23 20 23V20.3864C20 19.5203 19.3284 18.8182 18.5 18.8182C17.6716 18.8182 17 19.5203 17 20.3864V23H15.6667V20.3864C15.6667 19.5203 14.9951 18.8182 14.1667 18.8182C13.3382 18.8182 12.6667 19.5203 12.6667 20.3864V23H11.3333V20.3864C11.3333 19.5203 10.6618 18.8182 9.83333 18.8182C9.00491 18.8182 8.33333 19.5203 8.33333 20.3864V23H7V20.3864C7 19.5203 6.32843 18.8182 5.5 18.8182C4.67157 18.8182 4 19.5203 4 20.3864L4 23C2.89543 23 2 22.0639 2 20.9091Z" fill="#9E9E9E"/>
</svg>
