<svg width="18" height="18" viewBox="0 0 18 18" fill="none" xmlns="http://www.w3.org/2000/svg">
<path fill-rule="evenodd" clip-rule="evenodd" d="M8 2C7.44772 2 7 2.44772 7 3V5C7 5.55228 7.44772 6 8 6V8H3C1.89543 8 1 8.89543 1 10V12C0.447715 12 0 12.4477 0 13V15C0 15.5523 0.447715 16 1 16H3C3.55228 16 4 15.5523 4 15V13C4 12.4477 3.55228 12 3 12V10H8V12C7.44772 12 7 12.4477 7 13V15C7 15.5523 7.44772 16 8 16H10C10.5523 16 11 15.5523 11 15V13C11 12.4477 10.5523 12 10 12V10H15V12C14.4477 12 14 12.4477 14 13V15C14 15.5523 14.4477 16 15 16H17C17.5523 16 18 15.5523 18 15V13C18 12.4477 17.5523 12 17 12V10C17 8.89543 16.1046 8 15 8H10V6C10.5523 6 11 5.55228 11 5V3C11 2.44772 10.5523 2 10 2H8Z" fill="#F3A5A9"/>
</svg>
