<svg width="24" height="24" viewBox="0 0 24 24" fill="none" xmlns="http://www.w3.org/2000/svg">
<path fill-rule="evenodd" clip-rule="evenodd" d="M6 1C3.23858 1 1 3.23858 1 6V18C1 20.7614 3.23858 23 6 23H18C20.7614 23 23 20.7614 23 18V6C23 3.23858 20.7614 1 18 1H6ZM12 18.1111C15.3751 18.1111 18.1111 15.3751 18.1111 12C18.1111 8.62493 15.3751 5.88889 12 5.88889C8.62493 5.88889 5.88889 8.62493 5.88889 12C5.88889 15.3751 8.62493 18.1111 12 18.1111ZM20.5556 4.66667C20.5556 5.34168 20.0083 5.88889 19.3333 5.88889C18.6583 5.88889 18.1111 5.34168 18.1111 4.66667C18.1111 3.99165 18.6583 3.44444 19.3333 3.44444C20.0083 3.44444 20.5556 3.99165 20.5556 4.66667ZM12 15.6667C14.025 15.6667 15.6667 14.025 15.6667 12C15.6667 9.97496 14.025 8.33333 12 8.33333C9.97496 8.33333 8.33333 9.97496 8.33333 12C8.33333 14.025 9.97496 15.6667 12 15.6667Z" fill="#E22831"/>
</svg>
