<svg width="18" height="18" viewBox="0 0 18 18" fill="none" xmlns="http://www.w3.org/2000/svg">
<path fill-rule="evenodd" clip-rule="evenodd" d="M1.72581 2.99995C1.00196 2.99995 0.725583 3.97773 1.33526 4.38166L8.306 8.99995L15.2767 4.38166C15.8864 3.97773 15.61 2.99995 14.8862 2.99995H1.72581ZM1.061 13.875V5.52818L8.306 10.125L15.551 5.52818V12H9.755C8.95474 12 8.306 12.6715 8.306 13.4999V14.2499C8.306 14.5232 8.37656 14.7793 8.49985 15H2.14775C1.54756 15 1.061 14.4963 1.061 13.875ZM10.4795 14.9999C10.8796 14.9999 11.204 14.6642 11.204 14.2499C11.204 13.8357 10.8796 13.4999 10.4795 13.4999C10.0794 13.4999 9.755 13.8357 9.755 14.2499C9.755 14.6642 10.0794 14.9999 10.4795 14.9999ZM13.3775 14.9999C13.7776 14.9999 14.102 14.6642 14.102 14.2499C14.102 13.8357 13.7776 13.4999 13.3775 13.4999C12.9774 13.4999 12.653 13.8357 12.653 14.2499C12.653 14.6642 12.9774 14.9999 13.3775 14.9999ZM17 14.2499C17 14.6642 16.6756 14.9999 16.2755 14.9999C15.8754 14.9999 15.551 14.6642 15.551 14.2499C15.551 13.8357 15.8754 13.4999 16.2755 13.4999C16.6756 13.4999 17 13.8357 17 14.2499Z" fill="white"/>
</svg>
