<svg width="24" height="24" viewBox="0 0 24 24" fill="none" xmlns="http://www.w3.org/2000/svg">
<path fill-rule="evenodd" clip-rule="evenodd" d="M12 0C18.6274 0 24 5.37258 24 12C24 18.6274 18.6274 24 12 24C5.37258 24 0 18.6274 0 12C0 5.37258 5.37258 0 12 0ZM8.06066 15.0607C7.47487 15.6464 6.52513 15.6464 5.93934 15.0607C5.35355 14.4749 5.35355 13.5251 5.93934 12.9393L10.9393 7.93934C11.5251 7.35355 12.4749 7.35355 13.0607 7.93934L18.0607 12.9393C18.6464 13.5251 18.6464 14.4749 18.0607 15.0607C17.4749 15.6464 16.5251 15.6464 15.9393 15.0607L12 11.1213L8.06066 15.0607Z" fill="#E22831"/>
</svg>
