<svg width="24" height="24" viewBox="0 0 24 24" fill="none" xmlns="http://www.w3.org/2000/svg">
<path fill-rule="evenodd" clip-rule="evenodd" d="M16 9.5C16 13.0899 13.0899 16 9.5 16C5.91015 16 3 13.0899 3 9.5C3 5.91015 5.91015 3 9.5 3C13.0899 3 16 5.91015 16 9.5ZM18 9.5C18 11.6673 17.1889 13.6451 15.8536 15.1465L16.7071 16L18 16L22.9943 20.9943C23.5497 21.5498 23.5497 22.4503 22.9943 23.0057C22.4434 23.5567 21.5516 23.5617 20.9944 23.0171L16 18.1351L16 16.7071L15.1465 15.8536C13.6451 17.1889 11.6673 18 9.5 18C4.80558 18 1 14.1944 1 9.5C1 4.80558 4.80558 1 9.5 1C14.1944 1 18 4.80558 18 9.5ZM6.3956 10.7121C6.99158 10.7121 7.47472 10.2289 7.47472 9.63294C7.47472 9.03696 6.99158 8.55382 6.3956 8.55382C5.79962 8.55382 5.31648 9.03696 5.31648 9.63294C5.31648 10.2289 5.79962 10.7121 6.3956 10.7121ZM10.7121 9.63292C10.7121 10.2289 10.229 10.712 9.63298 10.712C9.037 10.712 8.55386 10.2289 8.55386 9.63292C8.55386 9.03694 9.037 8.5538 9.63298 8.5538C10.229 8.5538 10.7121 9.03694 10.7121 9.63292ZM12.8703 10.712C13.4663 10.712 13.9494 10.2289 13.9494 9.63292C13.9494 9.03694 13.4663 8.5538 12.8703 8.5538C12.2743 8.5538 11.7912 9.03694 11.7912 9.63292C11.7912 10.2289 12.2743 10.712 12.8703 10.712Z" fill="white"/>
</svg>
