<svg width="24" height="24" viewBox="0 0 24 24" fill="none" xmlns="http://www.w3.org/2000/svg">
<path fill-rule="evenodd" clip-rule="evenodd" d="M8.5 14C11.5376 14 14 11.5376 14 8.5C14 5.46243 11.5376 3 8.5 3C5.46243 3 3 5.46243 3 8.5C3 11.5376 5.46243 14 8.5 14ZM14.1451 13.438C15.3001 12.1188 16 10.3911 16 8.5C16 4.35786 12.6421 1 8.5 1C4.35786 1 1 4.35786 1 8.5C1 12.6421 4.35786 16 8.5 16C10.3911 16 12.1188 15.3001 13.438 14.1451L13.9442 14.6512L13.9442 15.9829L20.2096 22.5692C20.7559 23.1435 21.6645 23.1662 22.2388 22.6199C22.8131 22.0735 22.8358 21.165 22.2895 20.5906L16.024 14.0044L14.7115 14.0044L14.1451 13.438Z" fill="#575757"/>
</svg>
