<svg width="24" height="24" viewBox="0 0 24 24" fill="none" xmlns="http://www.w3.org/2000/svg">
<path fill-rule="evenodd" clip-rule="evenodd" d="M12 12.7929V4C12 2.89543 12.8954 2 14 2H21C22.1046 2 23 2.89543 23 4V9C23 10.1046 22.1046 11 21 11H15L12.8536 13.1464C12.5386 13.4614 12 13.2383 12 12.7929ZM9.5 12C9.5 13.6569 8.15685 15 6.5 15C4.84315 15 3.5 13.6569 3.5 12C3.5 10.3431 4.84315 9 6.5 9C8.15685 9 9.5 10.3431 9.5 12ZM1 21.1429C1 18.3025 3.30254 16 6.14286 16H6.85714C9.69746 16 12 18.3025 12 21.1429C12 21.6162 11.6162 22 11.1429 22H1.85714C1.38376 22 1 21.6162 1 21.1429Z" fill="white"/>
</svg>
