<svg width="24" height="24" viewBox="0 0 24 24" fill="none" xmlns="http://www.w3.org/2000/svg">
<path fill-rule="evenodd" clip-rule="evenodd" d="M23 4C23 3.44772 22.5523 3 22 3H2C1.44772 3 1 3.44772 1 4V8.46353C1 8.88735 1.27744 9.25186 1.63279 9.48284C2.45575 10.0178 3 10.9453 3 12C3 13.0547 2.45575 13.9822 1.63279 14.5172C1.27744 14.7481 1 15.1127 1 15.5365V20C1 20.5523 1.44772 21 2 21H22C22.5523 21 23 20.5523 23 20V15.5365C23 15.1127 22.7226 14.7481 22.3672 14.5172C21.5442 13.9822 21 13.0547 21 12C21 10.9453 21.5442 10.0178 22.3672 9.48284C22.7226 9.25186 23 8.88735 23 8.46353V4Z" fill="#9E9E9E"/>
</svg>
