<svg width="24" height="24" viewBox="0 0 24 24" fill="none" xmlns="http://www.w3.org/2000/svg">
<path fill-rule="evenodd" clip-rule="evenodd" d="M3 1C1.89543 1 1 1.89543 1 3V21C1 22.1046 1.89543 23 3 23H21C22.1046 23 23 22.1046 23 21V3C23 1.89543 22.1046 1 21 1H3ZM4.66666 16.2778C5.48147 16.8889 7.59999 18.1111 9.55555 18.1111C13.2647 18.1111 18.1111 14.9584 18.1111 10.7778V8.94444L19.9444 7.11112C19.5369 7.31486 17.5 8.33331 18.1111 7.72222C18.7222 7.11111 19.3333 5.88889 19.3333 5.88889L17.5 7.11111C17.5 7.11111 16.8889 5.88892 15.0555 5.88892C12.8576 5.88892 12 7.72622 12 9.55559C9.55555 9.55559 7.72221 8.94448 5.88888 6.50003C5.27777 8.33337 5.88888 10.1667 7.1111 10.7778C6.9074 10.7778 5.27777 10.1667 5.27777 10.1667C5.27777 10.1667 5.88888 12.6111 7.72221 13.2223H6.49999C7.1111 14.4445 7.72221 15.0556 9.55555 15.6667C7.72221 16.2778 5.88888 16.8889 4.66666 16.2778Z" fill="#E22831"/>
</svg>
