<svg width="24" height="24" viewBox="0 0 24 24" fill="none" xmlns="http://www.w3.org/2000/svg">
<path fill-rule="evenodd" clip-rule="evenodd" d="M3 1C1.89543 1 1 1.89543 1 3V21C1 22.1046 1.89543 23 3 23H21C22.1046 23 23 22.1046 23 21V3C23 1.89543 22.1046 1 21 1H3ZM13.4734 11V8C13.4734 7.62963 13.2739 7 12.4762 7H9.98318C9.81698 7 9.48458 7.11111 9.48458 7.55556C9.48458 7.83333 9.73388 7.97222 9.98318 8.11111C10.2325 8.25 10.4818 8.38889 10.4818 8.66667C10.4818 8.84444 10.4847 9.25333 10.4882 9.744C10.4934 10.48 10.5 11.4 10.5 12C10 12 9.38486 11.8889 8.98598 11.4444C8.40419 10.7962 7.5 9.11111 7.5 8C7.5 7.81481 7.29075 7.55556 6.49299 7.55556H4.4986C4.3324 7.55556 4 7.66667 4 8.11111C4 8.66667 4.79244 11.5403 7 14C7.9972 15.1111 10 17 11.479 17C13 17 13.5 17 13.4734 15.8889C13.4467 14.7778 14.0913 14.9108 14.4706 15.3333C14.9692 15.8889 15.9664 17 16.9635 17H19.4565C19.7889 17 20.2543 16.7778 19.4565 15.8889L17.9607 14.2222C17.2917 13.4767 17.2099 13.1177 17.4621 12.5556C17.7703 11.8689 18.0784 11.3944 18.5043 10.7386C18.7675 10.3333 19.0756 9.85883 19.4565 9.22222C19.8477 8.5685 20.4537 7.55556 19.4565 7.55556H16.9635C16.9349 7.55556 16.9041 7.55514 16.8716 7.55471C16.5271 7.55011 16 7.54306 16 8C16 8.55556 15.4986 10.4444 15 11C14.9432 11.0633 14.8799 11.1381 14.8122 11.2181C14.2859 11.84 13.497 12.7721 13.4734 11Z" fill="#E22831"/>
</svg>
