<svg width="24" height="24" viewBox="0 0 24 24" fill="none" xmlns="http://www.w3.org/2000/svg">
<path fill-rule="evenodd" clip-rule="evenodd" d="M6.2 21V19H20V21L6.2 21ZM4.2 21V19H4C2.89543 19 2 18.1046 2 17V11C2 9.89543 2.89543 9 4 9H4.2V3C4.2 1.89543 5.09543 1 6.2 1H15.325H16.4375L22 6.5V7.6V21C22 22.1046 21.1046 23 20 23H6.2C5.09543 23 4.2 22.1046 4.2 21ZM20 9H6.2V3H15.325V6.6C15.325 7.15229 15.7727 7.6 16.325 7.6H20V9ZM5.48973 11.0234V16H6.86717C7.31378 15.9954 7.70457 15.8986 8.03953 15.7095C8.37677 15.5203 8.6354 15.2492 8.81541 14.896C8.9977 14.5428 9.08885 14.1315 9.08885 13.6621V13.3442C9.08657 12.8862 8.99428 12.4806 8.81199 12.1274C8.63198 11.7743 8.37563 11.502 8.04295 11.3105C7.71027 11.1191 7.32745 11.0234 6.89451 11.0234H5.48973ZM6.14598 15.4634V11.5635H6.9116C7.39923 11.568 7.77521 11.7275 8.03953 12.042C8.30613 12.3542 8.43943 12.7928 8.43943 13.3579V13.6484C8.43943 14.2295 8.29816 14.6772 8.01561 14.9917C7.73533 15.3062 7.34227 15.4634 6.83641 15.4634H6.14598ZM13.7705 14.9507C13.9346 14.5861 14.0166 14.16 14.0166 13.6724V13.3579C14.0166 12.8726 13.9346 12.4476 13.7705 12.083C13.6064 11.7161 13.3717 11.437 13.0664 11.2456C12.7633 11.0519 12.4124 10.9551 12.0137 10.9551C11.6217 10.9551 11.2731 11.0531 10.9678 11.249C10.6647 11.4427 10.43 11.723 10.2637 12.0898C10.0973 12.4567 10.0142 12.8794 10.0142 13.3579V13.7168C10.0187 14.1862 10.1042 14.5998 10.2705 14.9575C10.4391 15.313 10.675 15.5876 10.978 15.7812C11.2811 15.9727 11.6286 16.0684 12.0205 16.0684C12.4215 16.0684 12.7725 15.9727 13.0732 15.7812C13.374 15.5898 13.6064 15.313 13.7705 14.9507ZM13.0083 11.9941C13.2453 12.3086 13.3638 12.7609 13.3638 13.3511V13.7202C13.3569 14.2967 13.2373 14.7399 13.0049 15.0498C12.7725 15.3574 12.4443 15.5112 12.0205 15.5112C11.599 15.5112 11.2674 15.3483 11.0259 15.0225C10.7866 14.6943 10.667 14.2443 10.667 13.6724V13.3066C10.6738 12.7461 10.7957 12.3086 11.0327 11.9941C11.272 11.6774 11.599 11.519 12.0137 11.519C12.4398 11.519 12.7713 11.6774 13.0083 11.9941ZM18.1821 15.6411C18.5103 15.354 18.7051 14.9473 18.7666 14.4209H18.107C18.0431 14.8311 17.9133 15.1193 17.7173 15.2856C17.5236 15.4497 17.2445 15.5317 16.8799 15.5317C16.4743 15.5317 16.1587 15.3722 15.9331 15.0532C15.7075 14.7342 15.5947 14.3047 15.5947 13.7646V13.2827C15.5947 12.7108 15.7132 12.2699 15.9502 11.96C16.1895 11.6501 16.5187 11.4951 16.938 11.4951C17.2798 11.4951 17.5453 11.584 17.7344 11.7617C17.9258 11.9395 18.05 12.2266 18.107 12.623H18.7666C18.7142 12.1012 18.5285 11.6934 18.2095 11.3994C17.8905 11.1032 17.4667 10.9551 16.938 10.9551C16.5392 10.9551 16.1883 11.0496 15.8853 11.2388C15.5822 11.4256 15.3475 11.6945 15.1812 12.0454C15.0171 12.3963 14.9351 12.8031 14.9351 13.2656V13.7441C14.9351 14.4505 15.1117 15.0145 15.4649 15.436C15.8203 15.8576 16.292 16.0684 16.8799 16.0684C17.4222 16.0684 17.8563 15.9259 18.1821 15.6411Z" fill="#E22831"/>
</svg>
