<svg width="24" height="24" viewBox="0 0 24 24" fill="none" xmlns="http://www.w3.org/2000/svg">
<path fill-rule="evenodd" clip-rule="evenodd" d="M6.2 21V19H20V21L6.2 21ZM4.2 21V19H4C2.89543 19 2 18.1046 2 17V11C2 9.89543 2.89543 9 4 9H4.2V3C4.2 1.89543 5.09543 1 6.2 1H15.325H16.4375L22 6.5V7.6V21C22 22.1046 21.1046 23 20 23H6.2C5.09543 23 4.2 22.1046 4.2 21ZM20 9H6.2V3H15.325V6.6C15.325 7.15229 15.7727 7.6 16.325 7.6H20V9ZM3.89914 16H4.58615C4.93251 16 5.24354 15.9465 5.51926 15.8394C5.79725 15.73 6.03423 15.5739 6.2302 15.3711C6.42844 15.1683 6.57997 14.9233 6.68478 14.6362C6.7896 14.3468 6.84201 14.0221 6.84201 13.6621V13.3647C6.84201 13.0047 6.7896 12.6812 6.68478 12.394C6.57997 12.1047 6.42958 11.8586 6.23361 11.6558C6.03993 11.4507 5.80865 11.2946 5.53977 11.1875C5.27089 11.0781 4.97352 11.0234 4.64768 11.0234H3.89914H3.52658H3.23947V16H3.54709H3.89914ZM3.89914 15.4634H4.58615C4.94162 15.4634 5.23784 15.3893 5.47482 15.2412C5.7118 15.0908 5.88954 14.8812 6.00803 14.6123C6.1288 14.3411 6.18918 14.0244 6.18918 13.6621V13.3579C6.18918 13.0731 6.155 12.8201 6.08664 12.5991C6.01828 12.3758 5.91802 12.1878 5.78586 12.0352C5.6537 11.8802 5.49191 11.7629 5.30051 11.6831C5.11138 11.6034 4.89377 11.5635 4.64768 11.5635H3.89914V15.4634ZM11.7698 13.6689V13.3545C11.7698 12.9808 11.7219 12.647 11.6262 12.353C11.5328 12.0568 11.3972 11.805 11.2195 11.5977C11.044 11.388 10.8332 11.2285 10.5871 11.1191C10.3433 11.0098 10.0699 10.9551 9.76684 10.9551C9.47289 10.9551 9.20287 11.0098 8.95678 11.1191C8.71296 11.2285 8.50219 11.388 8.32445 11.5977C8.14672 11.805 8.00886 12.0568 7.91088 12.353C7.81518 12.647 7.76732 12.9808 7.76732 13.3545V13.6689C7.76732 14.0426 7.81631 14.3776 7.9143 14.6738C8.01228 14.9701 8.15014 15.2218 8.32787 15.4292C8.50788 15.6366 8.7198 15.7949 8.96361 15.9043C9.20971 16.0137 9.47973 16.0684 9.77367 16.0684C10.0767 16.0684 10.3502 16.0137 10.594 15.9043C10.8401 15.7949 11.0509 15.6366 11.2263 15.4292C11.4018 15.2218 11.5362 14.9701 11.6296 14.6738C11.7231 14.3776 11.7698 14.0426 11.7698 13.6689ZM11.1169 13.3477V13.6689C11.1169 13.9674 11.0873 14.2318 11.0281 14.4619C10.9688 14.6898 10.8811 14.8823 10.7649 15.0396C10.651 15.1945 10.5108 15.3118 10.3445 15.3916C10.1781 15.4714 9.98786 15.5112 9.77367 15.5112C9.56859 15.5112 9.38288 15.4714 9.21654 15.3916C9.05248 15.3118 8.91006 15.1945 8.7893 15.0396C8.67081 14.8823 8.57966 14.6898 8.51586 14.4619C8.45206 14.2318 8.42016 13.9674 8.42016 13.6689V13.3477C8.42016 13.0514 8.45206 12.7894 8.51586 12.5615C8.57966 12.3337 8.66967 12.1423 8.78588 11.9873C8.90437 11.8324 9.04564 11.715 9.20971 11.6353C9.37605 11.5555 9.56176 11.5156 9.76684 11.5156C9.97875 11.5156 10.1679 11.5555 10.3342 11.6353C10.5028 11.715 10.6453 11.8324 10.7615 11.9873C10.8777 12.1423 10.9654 12.3337 11.0246 12.5615C11.0862 12.7894 11.1169 13.0514 11.1169 13.3477ZM16.5232 14.4175H15.867C15.8305 14.6499 15.769 14.8493 15.6824 15.0156C15.5981 15.182 15.4727 15.3096 15.3064 15.3984C15.1401 15.4873 14.9168 15.5317 14.6365 15.5317C14.4155 15.5317 14.224 15.4862 14.0623 15.395C13.9005 15.3016 13.7672 15.174 13.6624 15.0122C13.5575 14.8504 13.4789 14.6624 13.4265 14.4482C13.3764 14.234 13.3513 14.005 13.3513 13.7612V13.2588C13.3513 12.9945 13.3798 12.7541 13.4368 12.5376C13.4937 12.3211 13.5781 12.1354 13.6897 11.9805C13.8036 11.8255 13.9438 11.7059 14.1101 11.6216C14.2787 11.5373 14.4736 11.4951 14.6946 11.4951C14.9521 11.4951 15.1606 11.5407 15.3201 11.6318C15.4796 11.723 15.6026 11.8529 15.6892 12.0215C15.7758 12.1878 15.8351 12.3872 15.867 12.6196H16.5232C16.489 12.2915 16.399 12.0033 16.2532 11.7549C16.1096 11.5042 15.908 11.3083 15.6482 11.167C15.3884 11.0257 15.0706 10.9551 14.6946 10.9551C14.387 10.9551 14.1101 11.0098 13.864 11.1191C13.6179 11.2285 13.4072 11.3846 13.2317 11.5874C13.0585 11.7902 12.9252 12.034 12.8318 12.3188C12.7407 12.6014 12.6951 12.917 12.6951 13.2656V13.7612C12.6951 14.1099 12.7407 14.4266 12.8318 14.7114C12.9252 14.994 13.0574 15.2367 13.2283 15.4395C13.3992 15.64 13.6031 15.7949 13.8401 15.9043C14.0794 16.0137 14.3448 16.0684 14.6365 16.0684C15.0352 16.0684 15.3679 15.9966 15.6345 15.853C15.9011 15.7072 16.1074 15.5101 16.2532 15.2617C16.399 15.0133 16.489 14.7319 16.5232 14.4175ZM19.1507 12.9307L17.9544 11.0234H17.1853L18.7576 13.4878L17.1477 16H17.9236L19.1507 14.0552L20.3777 16H21.1536L19.5437 13.4878L21.116 11.0234H20.347L19.1507 12.9307Z" fill="#E22831"/>
</svg>
