<svg width="24" height="24" viewBox="0 0 24 24" fill="none" xmlns="http://www.w3.org/2000/svg">
<path fill-rule="evenodd" clip-rule="evenodd" d="M6.2 21V19H20V21L6.2 21ZM4.2 21V19H4C2.89543 19 2 18.1046 2 17V11C2 9.89543 2.89543 9 4 9H4.2V3C4.2 1.89543 5.09543 1 6.2 1H15.325H16.4375L22 6.5V7.6V21C22 22.1046 21.1046 23 20 23H6.2C5.09543 23 4.2 22.1046 4.2 21ZM20 9H6.2V3H15.325V6.6C15.325 7.15229 15.7727 7.6 16.325 7.6H20V9ZM10.8764 15.3438V13.522H9.06834V14.0552H10.2202V15.1694C10.1769 15.2196 10.1142 15.2731 10.0322 15.3301C9.95018 15.3848 9.83624 15.4326 9.69041 15.4736C9.54458 15.5124 9.35431 15.5317 9.11961 15.5317C8.9077 15.5317 8.71401 15.4907 8.53855 15.4087C8.36538 15.3267 8.21613 15.207 8.0908 15.0498C7.96548 14.8903 7.86863 14.6978 7.80027 14.4722C7.73419 14.2466 7.70115 13.9902 7.70115 13.7031V13.3101C7.70115 13.0298 7.72736 12.778 7.77977 12.5547C7.83445 12.3314 7.91648 12.1411 8.02586 11.9839C8.13523 11.8267 8.27423 11.7059 8.44285 11.6216C8.61147 11.5373 8.81085 11.4951 9.041 11.4951C9.2962 11.4951 9.5047 11.5407 9.66648 11.6318C9.82827 11.7207 9.95245 11.8392 10.039 11.9873C10.1279 12.1354 10.1872 12.2995 10.2168 12.4795H10.8764C10.8354 12.1855 10.742 11.9235 10.5962 11.6934C10.4526 11.4632 10.2521 11.2832 9.99461 11.1533C9.7394 11.0212 9.42153 10.9551 9.041 10.9551C8.71971 10.9551 8.43488 11.0086 8.1865 11.1157C7.93813 11.2205 7.7285 11.3755 7.5576 11.5806C7.3867 11.7834 7.25682 12.0306 7.16795 12.3223C7.08136 12.6139 7.03807 12.9455 7.03807 13.3169V13.7031C7.03807 14.0745 7.0882 14.4072 7.18846 14.7012C7.291 14.9928 7.43455 15.2412 7.61912 15.4463C7.80597 15.6491 8.02586 15.804 8.27879 15.9111C8.534 16.016 8.81313 16.0684 9.11619 16.0684C9.48761 16.0684 9.79067 16.0273 10.0254 15.9453C10.2624 15.861 10.4481 15.763 10.5825 15.6514C10.7169 15.5374 10.8149 15.4349 10.8764 15.3438ZM12.7827 16V11.0234H12.123V16H12.7827ZM14.7471 13.2622V11.5635H17.1704V11.0234H14.7471H14.6035H14.0874V16H14.7471V13.8022H16.8321V13.2622H14.7471Z" fill="#E22831"/>
</svg>
