<svg width="24" height="24" viewBox="0 0 24 24" fill="none" xmlns="http://www.w3.org/2000/svg">
<path fill-rule="evenodd" clip-rule="evenodd" d="M6.2 21V19H20V21L6.2 21ZM4.2 21V19H4C2.89543 19 2 18.1046 2 17V11C2 9.89543 2.89543 9 4 9H4.2V3C4.2 1.89543 5.09543 1 6.2 1H15.325H16.4375L22 6.5V7.6V21C22 22.1046 21.1046 23 20 23H6.2C5.09543 23 4.2 22.1046 4.2 21ZM20 9H6.2V3H15.325V6.6C15.325 7.15229 15.7727 7.6 16.325 7.6H20V9ZM6.11057 13.6997H3.60178V16H2.94211V11.0234H3.60178V13.1631H6.11057V11.0234H6.76682V16H6.11057V13.6997ZM9.78051 16V11.5635H11.3801V11.0234H9.78051H9.13109H7.5349V11.5635H9.13109V16H9.78051ZM13.0711 11.0234H12.7874H12.4319H12.2234V16H12.8796V14.0586L12.8162 11.9718L14.4485 16H14.9475L16.5831 11.9774L16.5198 14.0586V16H17.176V11.0234H16.971H16.6121H16.3284L14.7014 15.0806L13.0711 11.0234ZM21.4578 16V15.4634H19.0994V11.0234H18.4397V16H18.9695H19.0994H21.4578Z" fill="#E22831"/>
</svg>
