<svg width="24" height="24" viewBox="0 0 24 24" fill="none" xmlns="http://www.w3.org/2000/svg">
<path fill-rule="evenodd" clip-rule="evenodd" d="M6.2 21V19H20V21L6.2 21ZM4.2 21V19H4C2.89543 19 2 18.1046 2 17V11C2 9.89543 2.89543 9 4 9H4.2V3C4.2 1.89543 5.09543 1 6.2 1H15.325H16.4375L22 6.5V7.6V21C22 22.1046 21.1046 23 20 23H6.2C5.09543 23 4.2 22.1046 4.2 21ZM20 9H6.2V3H15.325V6.6C15.325 7.15229 15.7727 7.6 16.325 7.6H20V9ZM8.03611 11.0234V14.5474C8.03611 14.7616 7.99624 14.9427 7.91648 15.0908C7.83673 15.2367 7.72736 15.3472 7.58836 15.4224C7.45164 15.4953 7.29669 15.5317 7.12352 15.5317C6.94578 15.5317 6.78742 15.4998 6.64842 15.436C6.5117 15.3722 6.4046 15.2731 6.32713 15.1387C6.24965 15.0042 6.21092 14.8322 6.21092 14.6226H5.55125C5.55125 14.9484 5.61847 15.2184 5.75291 15.4326C5.88735 15.6468 6.07306 15.8063 6.31004 15.9111C6.54702 16.016 6.81818 16.0684 7.12352 16.0684C7.42885 16.0684 7.69887 16.0103 7.93357 15.894C8.17055 15.7756 8.35626 15.6035 8.4907 15.3779C8.62514 15.1523 8.69236 14.8755 8.69236 14.5474V11.0234H8.03611ZM10.5747 14.0483H11.7505C12.1265 14.0483 12.4443 13.9902 12.7041 13.874C12.9639 13.7555 13.161 13.5835 13.2954 13.3579C13.4299 13.1323 13.4971 12.86 13.4971 12.541C13.4971 12.2471 13.4299 11.9862 13.2954 11.7583C13.161 11.5282 12.9639 11.3481 12.7041 11.2183C12.4443 11.0884 12.1265 11.0234 11.7505 11.0234H9.91504V16H10.5747V14.0483ZM10.5747 13.5117V11.5635H11.7505C12.008 11.5635 12.2165 11.6102 12.376 11.7036C12.5355 11.7948 12.6517 11.9155 12.7246 12.0659C12.7998 12.2163 12.8374 12.377 12.8374 12.5479C12.8374 12.7347 12.7998 12.901 12.7246 13.0469C12.6517 13.1927 12.5355 13.3066 12.376 13.3887C12.2165 13.4707 12.008 13.5117 11.7505 13.5117H10.5747ZM18.1138 15.3438V13.522H16.3057V14.0552H17.4575V15.1694C17.4142 15.2196 17.3516 15.2731 17.2696 15.3301C17.1875 15.3848 17.0736 15.4326 16.9278 15.4736C16.7819 15.5124 16.5917 15.5317 16.357 15.5317C16.145 15.5317 15.9514 15.4907 15.7759 15.4087C15.6027 15.3267 15.4535 15.207 15.3281 15.0498C15.2028 14.8903 15.106 14.6978 15.0376 14.4722C14.9715 14.2466 14.9385 13.9902 14.9385 13.7031V13.3101C14.9385 13.0298 14.9647 12.778 15.0171 12.5547C15.0718 12.3314 15.1538 12.1411 15.2632 11.9839C15.3726 11.8267 15.5116 11.7059 15.6802 11.6216C15.8488 11.5373 16.0482 11.4951 16.2783 11.4951C16.5335 11.4951 16.742 11.5407 16.9038 11.6318C17.0656 11.7207 17.1898 11.8392 17.2764 11.9873C17.3653 12.1354 17.4245 12.2995 17.4541 12.4795H18.1138C18.0728 12.1855 17.9793 11.9235 17.8335 11.6934C17.69 11.4632 17.4894 11.2832 17.232 11.1533C16.9767 11.0212 16.6589 10.9551 16.2783 10.9551C15.9571 10.9551 15.6722 11.0086 15.4238 11.1157C15.1755 11.2205 14.9658 11.3755 14.7949 11.5806C14.624 11.7834 14.4942 12.0306 14.4053 12.3223C14.3187 12.6139 14.2754 12.9455 14.2754 13.3169V13.7031C14.2754 14.0745 14.3255 14.4072 14.4258 14.7012C14.5283 14.9928 14.6719 15.2412 14.8565 15.4463C15.0433 15.6491 15.2632 15.804 15.5161 15.9111C15.7713 16.016 16.0505 16.0684 16.3535 16.0684C16.725 16.0684 17.028 16.0273 17.2627 15.9453C17.4997 15.861 17.6854 15.763 17.8198 15.6514C17.9543 15.5374 18.0523 15.4349 18.1138 15.3438Z" fill="#E22831"/>
</svg>
