<svg width="24" height="24" viewBox="0 0 24 24" fill="none" xmlns="http://www.w3.org/2000/svg">
<path fill-rule="evenodd" clip-rule="evenodd" d="M6.2 21V19H20V21L6.2 21ZM4.2 21V19H4C2.89543 19 2 18.1046 2 17V11C2 9.89543 2.89543 9 4 9H4.2V3C4.2 1.89543 5.09543 1 6.2 1H15.325H16.4375L22 6.5V7.6V21C22 22.1046 21.1046 23 20 23H6.2C5.09543 23 4.2 22.1046 4.2 21ZM20 9H6.2V3H15.325V6.6C15.325 7.15229 15.7727 7.6 16.325 7.6H20V9ZM6.69285 14.0483H7.86863C8.24461 14.0483 8.56248 13.9902 8.82225 13.874C9.08201 13.7555 9.27911 13.5835 9.41355 13.3579C9.54799 13.1323 9.61521 12.86 9.61521 12.541C9.61521 12.2471 9.54799 11.9862 9.41355 11.7583C9.27911 11.5282 9.08201 11.3481 8.82225 11.2183C8.56248 11.0884 8.24461 11.0234 7.86863 11.0234H6.03318V16H6.69285V14.0483ZM6.69285 13.5117V11.5635H7.86863C8.12612 11.5635 8.33462 11.6102 8.49412 11.7036C8.65363 11.7948 8.76984 11.9155 8.84275 12.0659C8.91795 12.2163 8.95555 12.377 8.95555 12.5479C8.95555 12.7347 8.91795 12.901 8.84275 13.0469C8.76984 13.1927 8.65363 13.3066 8.49412 13.3887C8.33462 13.4707 8.12612 13.5117 7.86863 13.5117H6.69285ZM11.2139 16H11.9009C12.2472 16 12.5583 15.9465 12.834 15.8394C13.112 15.73 13.349 15.5739 13.5449 15.3711C13.7432 15.1683 13.8947 14.9233 13.9995 14.6362C14.1043 14.3468 14.1567 14.0221 14.1567 13.6621V13.3647C14.1567 13.0047 14.1043 12.6812 13.9995 12.394C13.8947 12.1047 13.7443 11.8586 13.5483 11.6558C13.3547 11.4507 13.1234 11.2946 12.8545 11.1875C12.5856 11.0781 12.2882 11.0234 11.9624 11.0234H11.2139H10.8413H10.5542V16H10.8618H11.2139ZM11.2139 15.4634H11.9009C12.2563 15.4634 12.5526 15.3893 12.7896 15.2412C13.0265 15.0908 13.2043 14.8812 13.3228 14.6123C13.4435 14.3411 13.5039 14.0244 13.5039 13.6621V13.3579C13.5039 13.0731 13.4697 12.8201 13.4014 12.5991C13.333 12.3758 13.2327 12.1878 13.1006 12.0352C12.9684 11.8802 12.8066 11.7629 12.6152 11.6831C12.4261 11.6034 12.2085 11.5635 11.9624 11.5635H11.2139V15.4634ZM15.9126 13.2622V11.5635H18.336V11.0234H15.9126H15.7691H15.2529V16H15.9126V13.8022H17.9976V13.2622H15.9126Z" fill="#E22831"/>
</svg>
