<svg width="24" height="24" viewBox="0 0 24 24" fill="none" xmlns="http://www.w3.org/2000/svg">
<path fill-rule="evenodd" clip-rule="evenodd" d="M6.2 21V19H20V21L6.2 21ZM4.2 21V19H4C2.89543 19 2 18.1046 2 17V11C2 9.89543 2.89543 9 4 9H4.2V3C4.2 1.89543 5.09543 1 6.2 1H15.325H16.4375L22 6.5V7.6V21C22 22.1046 21.1046 23 20 23H6.2C5.09543 23 4.2 22.1046 4.2 21ZM20 9H6.2V3H15.325V6.6C15.325 7.15229 15.7727 7.6 16.325 7.6H20V9ZM6.04002 14.0483H7.2158C7.59178 14.0483 7.90965 13.9902 8.16941 13.874C8.42918 13.7555 8.62628 13.5835 8.76072 13.3579C8.89516 13.1323 8.96238 12.86 8.96238 12.541C8.96238 12.2471 8.89516 11.9862 8.76072 11.7583C8.62628 11.5282 8.42918 11.3481 8.16941 11.2183C7.90965 11.0884 7.59178 11.0234 7.2158 11.0234H5.38035V16H6.04002V14.0483ZM6.04002 13.5117V11.5635H7.2158C7.47329 11.5635 7.68178 11.6102 7.84129 11.7036C8.00079 11.7948 8.11701 11.9155 8.18992 12.0659C8.26512 12.2163 8.30271 12.377 8.30271 12.5479C8.30271 12.7347 8.26512 12.901 8.18992 13.0469C8.11701 13.1927 8.00079 13.3066 7.84129 13.3887C7.68178 13.4707 7.47329 13.5117 7.2158 13.5117H6.04002ZM13.0664 16H13.7295V11.0234H13.0767V14.8721L10.561 11.0234H9.90137V16H10.561V12.1616L13.0664 16ZM18.6812 15.3438V13.522H16.8731V14.0552H18.0249V15.1694C17.9816 15.2196 17.919 15.2731 17.8369 15.3301C17.7549 15.3848 17.641 15.4326 17.4951 15.4736C17.3493 15.5124 17.159 15.5317 16.9243 15.5317C16.7124 15.5317 16.5187 15.4907 16.3433 15.4087C16.1701 15.3267 16.0209 15.207 15.8955 15.0498C15.7702 14.8903 15.6734 14.6978 15.605 14.4722C15.5389 14.2466 15.5059 13.9902 15.5059 13.7031V13.3101C15.5059 13.0298 15.5321 12.778 15.5845 12.5547C15.6392 12.3314 15.7212 12.1411 15.8306 11.9839C15.94 11.8267 16.079 11.7059 16.2476 11.6216C16.4162 11.5373 16.6156 11.4951 16.8457 11.4951C17.1009 11.4951 17.3094 11.5407 17.4712 11.6318C17.633 11.7207 17.7572 11.8392 17.8438 11.9873C17.9326 12.1354 17.9919 12.2995 18.0215 12.4795H18.6812C18.6402 12.1855 18.5467 11.9235 18.4009 11.6934C18.2573 11.4632 18.0568 11.2832 17.7993 11.1533C17.5441 11.0212 17.2263 10.9551 16.8457 10.9551C16.5244 10.9551 16.2396 11.0086 15.9912 11.1157C15.7429 11.2205 15.5332 11.3755 15.3623 11.5806C15.1914 11.7834 15.0615 12.0306 14.9727 12.3223C14.8861 12.6139 14.8428 12.9455 14.8428 13.3169V13.7031C14.8428 14.0745 14.8929 14.4072 14.9932 14.7012C15.0957 14.9928 15.2393 15.2412 15.4238 15.4463C15.6107 15.6491 15.8306 15.804 16.0835 15.9111C16.3387 16.016 16.6179 16.0684 16.9209 16.0684C17.2923 16.0684 17.5954 16.0273 17.8301 15.9453C18.0671 15.861 18.2528 15.763 18.3872 15.6514C18.5217 15.5374 18.6196 15.4349 18.6812 15.3438Z" fill="#E22831"/>
</svg>
