<svg width="24" height="24" viewBox="0 0 24 24" fill="none" xmlns="http://www.w3.org/2000/svg">
<path fill-rule="evenodd" clip-rule="evenodd" d="M6.2 21V19H20V21L6.2 21ZM4.2 21V19H4C2.89543 19 2 18.1046 2 17V11C2 9.89543 2.89543 9 4 9H4.2V3C4.2 1.89543 5.09543 1 6.2 1H15.325H16.4375L22 6.5V7.6V21C22 22.1046 21.1046 23 20 23H6.2C5.09543 23 4.2 22.1046 4.2 21ZM20 9H6.2V3H15.325V6.6C15.325 7.15229 15.7727 7.6 16.325 7.6H20V9ZM6.62791 14.0483H7.80369C8.17967 14.0483 8.49754 13.9902 8.7573 13.874C9.01707 13.7555 9.21417 13.5835 9.34861 13.3579C9.48305 13.1323 9.55027 12.86 9.55027 12.541C9.55027 12.2471 9.48305 11.9862 9.34861 11.7583C9.21417 11.5282 9.01707 11.3481 8.7573 11.2183C8.49754 11.0884 8.17967 11.0234 7.80369 11.0234H5.96824V16H6.62791V14.0483ZM6.62791 13.5117V11.5635H7.80369C8.06118 11.5635 8.26967 11.6102 8.42918 11.7036C8.58869 11.7948 8.7049 11.9155 8.77781 12.0659C8.85301 12.2163 8.89061 12.377 8.89061 12.5479C8.89061 12.7347 8.85301 12.901 8.77781 13.0469C8.7049 13.1927 8.58869 13.3066 8.42918 13.3887C8.26967 13.4707 8.06118 13.5117 7.80369 13.5117H6.62791ZM11.1489 14.0483H12.3247C12.7007 14.0483 13.0186 13.9902 13.2783 13.874C13.5381 13.7555 13.7352 13.5835 13.8696 13.3579C14.0041 13.1323 14.0713 12.86 14.0713 12.541C14.0713 12.2471 14.0041 11.9862 13.8696 11.7583C13.7352 11.5282 13.5381 11.3481 13.2783 11.2183C13.0186 11.0884 12.7007 11.0234 12.3247 11.0234H10.4893V16H11.1489V14.0483ZM11.1489 13.5117V11.5635H12.3247C12.5822 11.5635 12.7907 11.6102 12.9502 11.7036C13.1097 11.7948 13.2259 11.9155 13.2988 12.0659C13.374 12.2163 13.4116 12.377 13.4116 12.5479C13.4116 12.7347 13.374 12.901 13.2988 13.0469C13.2259 13.1927 13.1097 13.3066 12.9502 13.3887C12.7907 13.4707 12.5822 13.5117 12.3247 13.5117H11.1489ZM16.8491 16V11.5635H18.4487V11.0234H16.8491H16.1997H14.6035V11.5635H16.1997V16H16.8491Z" fill="#E22831"/>
</svg>
