<svg width="24" height="24" viewBox="0 0 24 24" fill="none" xmlns="http://www.w3.org/2000/svg">
<path fill-rule="evenodd" clip-rule="evenodd" d="M6.2 21V19H20V21L6.2 21ZM4.2 21V19H4C2.89543 19 2 18.1046 2 17V11C2 9.89543 2.89543 9 4 9H4.2V3C4.2 1.89543 5.09543 1 6.2 1H15.325H16.4375L22 6.5V7.6V21C22 22.1046 21.1046 23 20 23H6.2C5.09543 23 4.2 22.1046 4.2 21ZM20 9H6.2V3H15.325V6.6C15.325 7.15229 15.7727 7.6 16.325 7.6H20V9ZM7.52342 11.0234H5.87596V16H6.53562V13.9834H7.70302L8.78465 16H9.48875V15.959L8.31976 13.8457C8.47332 13.7871 8.61005 13.7122 8.72996 13.6211C8.90314 13.4889 9.0353 13.3294 9.12645 13.1426C9.21987 12.9535 9.26658 12.745 9.26658 12.5171C9.26658 12.1935 9.19822 11.9212 9.0615 11.7002C8.92706 11.4769 8.72996 11.3083 8.4702 11.1943C8.21271 11.0804 7.89712 11.0234 7.52342 11.0234ZM6.53562 13.4468H7.54393C7.7809 13.4468 7.97801 13.4058 8.13523 13.3237C8.29246 13.2394 8.41095 13.1266 8.4907 12.9854C8.57046 12.8441 8.61033 12.688 8.61033 12.5171C8.61033 12.3257 8.57273 12.1582 8.49754 12.0146C8.42234 11.8711 8.30385 11.7606 8.14207 11.6831C7.98256 11.6034 7.77635 11.5635 7.52342 11.5635H6.53562V13.4468ZM12.147 11.0234H12.2905L14.1943 16H13.5176L13.0436 14.6978H10.9623L10.4893 16H9.81592L11.7129 11.0234H11.8564H12.147ZM11.1584 14.1577H12.847L12.0018 11.8357L11.1584 14.1577ZM16.6133 11.0234H14.9658V16H15.6255V13.9834H16.7929L17.8745 16H18.5786V15.959L17.4096 13.8457C17.5632 13.7871 17.6999 13.7122 17.8198 13.6211C17.993 13.4889 18.1252 13.3294 18.2163 13.1426C18.3098 12.9535 18.3565 12.745 18.3565 12.5171C18.3565 12.1935 18.2881 11.9212 18.1514 11.7002C18.0169 11.4769 17.8198 11.3083 17.5601 11.1943C17.3026 11.0804 16.987 11.0234 16.6133 11.0234ZM15.6255 13.4468H16.6338C16.8708 13.4468 17.0679 13.4058 17.2251 13.3237C17.3823 13.2394 17.5008 13.1266 17.5806 12.9854C17.6603 12.8441 17.7002 12.688 17.7002 12.5171C17.7002 12.3257 17.6626 12.1582 17.5874 12.0146C17.5122 11.8711 17.3937 11.7606 17.232 11.6831C17.0724 11.6034 16.8662 11.5635 16.6133 11.5635H15.6255V13.4468Z" fill="#E22831"/>
</svg>
