<svg width="24" height="24" viewBox="0 0 24 24" fill="none" xmlns="http://www.w3.org/2000/svg">
<path fill-rule="evenodd" clip-rule="evenodd" d="M6.2 21V19H20V21L6.2 21ZM4.2 21V19H4C2.89543 19 2 18.1046 2 17V11C2 9.89543 2.89543 9 4 9H4.2V3C4.2 1.89543 5.09543 1 6.2 1H15.325H16.4375L22 6.5V7.6V21C22 22.1046 21.1046 23 20 23H6.2C5.09543 23 4.2 22.1046 4.2 21ZM20 9H6.2V3H15.325V6.6C15.325 7.15229 15.7727 7.6 16.325 7.6H20V9ZM7.93699 12.9307L6.7407 11.0234H5.97166L7.54393 13.4878L5.93406 16H6.70994L7.93699 14.0552L9.16404 16H9.93992L8.33006 13.4878L9.90232 11.0234H9.13328L7.93699 12.9307ZM13.8252 16V15.4634H11.4668V11.0234H10.8071V16H11.3369H11.4668H13.8252ZM17.2832 14.4346C17.3197 14.5234 17.3379 14.626 17.3379 14.7422C17.3379 14.904 17.2958 15.0441 17.2114 15.1626C17.1294 15.2811 17.0086 15.3722 16.8491 15.436C16.6896 15.4998 16.4948 15.5317 16.2647 15.5317C16.1052 15.5317 15.9514 15.5135 15.8032 15.4771C15.6574 15.4383 15.5264 15.3791 15.4102 15.2993C15.2962 15.2196 15.2062 15.1193 15.1402 14.9985C15.0741 14.8755 15.041 14.7285 15.041 14.5576H14.3848C14.3848 14.806 14.4383 15.0247 14.5454 15.2139C14.6548 15.4007 14.7995 15.5579 14.9795 15.6855C15.1618 15.8132 15.3635 15.9089 15.5845 15.9727C15.8078 16.0365 16.0345 16.0684 16.2647 16.0684C16.5267 16.0684 16.7637 16.0376 16.9756 15.9761C17.1898 15.9123 17.3732 15.8223 17.5259 15.7061C17.6786 15.5898 17.7959 15.4497 17.8779 15.2856C17.96 15.1216 18.001 14.9382 18.001 14.7354C18.001 14.5417 17.968 14.3685 17.9019 14.2158C17.8381 14.0609 17.739 13.923 17.6045 13.8022C17.4724 13.6792 17.3037 13.5687 17.0987 13.4707C16.8936 13.3727 16.6498 13.2839 16.3672 13.2041C16.1621 13.1471 15.9855 13.0879 15.8374 13.0264C15.6916 12.9648 15.5708 12.8976 15.4751 12.8247C15.3817 12.7518 15.3122 12.6732 15.2666 12.5889C15.2233 12.5023 15.2017 12.4066 15.2017 12.3018C15.2017 12.1468 15.2381 12.009 15.3111 11.8882C15.3862 11.7674 15.5002 11.6717 15.6529 11.6011C15.8055 11.5304 15.9992 11.4951 16.2339 11.4951C16.4823 11.4951 16.6874 11.5373 16.8491 11.6216C17.0109 11.7036 17.1317 11.8175 17.2114 11.9634C17.2912 12.1069 17.3311 12.2721 17.3311 12.459H17.9873C17.9873 12.1992 17.919 11.9554 17.7822 11.7275C17.6455 11.4974 17.4461 11.3117 17.1841 11.1704C16.9243 11.0269 16.6076 10.9551 16.2339 10.9551C15.9787 10.9551 15.7474 10.9893 15.5401 11.0576C15.3327 11.126 15.1538 11.2217 15.0034 11.3447C14.8553 11.4655 14.7414 11.6079 14.6616 11.772C14.5819 11.936 14.542 12.1149 14.542 12.3086C14.542 12.5023 14.5796 12.6743 14.6548 12.8247C14.73 12.9751 14.8382 13.1084 14.9795 13.2246C15.1208 13.3408 15.2905 13.4445 15.4888 13.5356C15.687 13.6245 15.9092 13.7054 16.1553 13.7783C16.39 13.8467 16.5837 13.9139 16.7363 13.98C16.8913 14.0461 17.0121 14.1156 17.0987 14.1885C17.1875 14.2614 17.249 14.3434 17.2832 14.4346Z" fill="#E22831"/>
</svg>
