<svg width="24" height="24" viewBox="0 0 24 24" fill="none" xmlns="http://www.w3.org/2000/svg">
<path fill-rule="evenodd" clip-rule="evenodd" d="M6.2 21V19H20V21L6.2 21ZM4.2 21V19H4C2.89543 19 2 18.1046 2 17V11C2 9.89543 2.89543 9 4 9H4.2V3C4.2 1.89543 5.09543 1 6.2 1H15.325H16.4375L22 6.5V7.6V21C22 22.1046 21.1046 23 20 23H6.2C5.09543 23 4.2 22.1046 4.2 21ZM20 9H6.2V3H15.325V6.6C15.325 7.15229 15.7727 7.6 16.325 7.6H20V9ZM10.5517 16V15.4634H7.7091L10.4424 11.502V11.0234H10.1621H10.0322H6.97654V11.5635H9.65887L6.93211 15.5078V16H7.18162H7.33885H10.5517ZM12.2222 16V11.0234H11.5625V16H12.2222ZM14.1865 14.0483H15.3623C15.7383 14.0483 16.0562 13.9902 16.3159 13.874C16.5757 13.7555 16.7728 13.5835 16.9072 13.3579C17.0417 13.1323 17.1089 12.86 17.1089 12.541C17.1089 12.2471 17.0417 11.9862 16.9072 11.7583C16.7728 11.5282 16.5757 11.3481 16.3159 11.2183C16.0562 11.0884 15.7383 11.0234 15.3623 11.0234H13.5269V16H14.1865V14.0483ZM14.1865 13.5117V11.5635H15.3623C15.6198 11.5635 15.8283 11.6102 15.9878 11.7036C16.1473 11.7948 16.2635 11.9155 16.3364 12.0659C16.4116 12.2163 16.4492 12.377 16.4492 12.5479C16.4492 12.7347 16.4116 12.901 16.3364 13.0469C16.2635 13.1927 16.1473 13.3066 15.9878 13.3887C15.8283 13.4707 15.6198 13.5117 15.3623 13.5117H14.1865Z" fill="#E22831"/>
</svg>
